<?xml version="1.0" encoding="utf-8"?>
<?xml-stylesheet type="text/xsl" href="rss1.xsl"?>
<rss version="2.0" xmlns:atom="http://www.w3.org/2005/Atom" xmlns:content="http://purl.org/rss/1.0/modules/content/" xmlns:dc="http://purl.org/dc/elements/1.1/" xmlns:media="http://search.yahoo.com/mrss/">
<channel>
 <title>Getty</title>
 <link>http://www.gettyimg.com/</link>
 <atom:link href="http://www.gettyimg.com/" rel="self" type="application/rss+xml" />

 
                <item>
                <title><![CDATA[【HD Live Performances】FEED - Christmas at Graceland (2023) 1080i HDTV Backhaul MPA2.0 H.264-TrollHD]]></title>
                <link><![CDATA[https://sharemania.us/threads/christmas-at-graceland-2023-1080i-hdtv-backhaul-mpa2-0-h-264-trollhd.233840/]]></link>
                <description><![CDATA[<article>
<blockquote class="messageText SelectQuoteContainer ugc baseHtml">
<div style="padding-left: 30px"><div style="padding-left: 30px"><div style="padding-left: 30px"><div style="padding-left: 30px"><div style="padding-left: 30px"><div style="padding-left: 30px"><div style="padding-left: 30px"><b><span style="color: rgb(255, 0, 0)"><span style="font-size: 18px">Christmas at Graceland (2023) </span></span></b>​</div></div><b><span style="color: rgb(255, 0, 0)"><span style="font-size: 18px">1080i HDTV Backhaul MPA2.0 H.264-TrollHD</span></span></b>​</div></div></div></div></div><br>
<br>
<img src="https://images2.imgbox.com/22/6e/1tGQMWn4_o.jpg" class="bbCodeImage LbImage" alt="[​IMG]" data-url="https://images2.imgbox.com/22/6e/1tGQMWn4_o.jpg" style=""><br>
<br>
<div class="bbCodeBlock bbCodeCode">
<div class="type">Code:</div>
<pre>General
Unique ID                      : 327813037887221791291383508141170021201 (0xF69E7E9CF9B4FD8D2D6A067296F4D351)
Format                         : Matroska
Format version                 : Version 4
File size                      : 6.40 GiB
Duration                       : 41 min 52 s
Overall bit rate mode          : Variable
Overall bit rate               : 21.9 Mb/s
Encoded date                   : UTC 2023-11-30 23:12:05
Writing application            : mkvmerge v77.0 ('Elemental') 64-bit
Writing library                : libebml v1.4.4 + libmatroska v1.7.1

Video
ID                             : 1
Format                         : AVC
Format/Info                    : Advanced Video Codec
Format profile                 : High@L4.1
Format settings                : CABAC / 4 Ref Frames
Format settings, CABAC         : Yes
Format settings, Reference fra : 4 frames
Codec ID                       : V_MPEG4/ISO/AVC
Duration                       : 41 min 52 s
Bit rate mode                  : Variable
Bit rate                       : 21.7 Mb/s
Maximum bit rate               : 33.6 Mb/s
Width                          : 1 920 pixels
Height                         : 1 080 pixels
Display aspect ratio           : 16:9
Frame rate mode                : Variable
Frame rate                     : 50.177 FPS
Original frame rate            : 29.970 (30000/1001) FPS
Color space                    : YUV
Chroma subsampling             : 4:2:0
Bit depth                      : 8 bits
Scan type                      : MBAFF
Scan type, store method        : Interleaved fields
Scan order                     : Top Field First
Bits/(Pixel*Frame)             : 0.208
Stream size                    : 6.34 GiB (99%)
Language                       : English
Default                        : Yes
Forced                         : No
Color range                    : Limited
Color primaries                : BT.709
Transfer characteristics       : BT.709
Matrix coefficients            : BT.709

Audio
ID                             : 2
Format                         : MPEG Audio
Format version                 : Version 1
Format profile                 : Layer 2
Format settings                : Intensity Stereo + MS Stereo
Codec ID                       : A_MPEG/L2
Codec ID/Hint                  : MP2
Duration                       : 41 min 52 s
Bit rate mode                  : Constant
Bit rate                       : 192 kb/s
Channel(s)                     : 2 channels
Sampling rate                  : 48.0 kHz
Frame rate                     : 41.667 FPS (1152 SPF)
Compression mode               : Lossy
Stream size                    : 57.5 MiB (1%)
Language                       : English
Default                        : No
Forced                         : No

</pre>
</div>
<div class="bbCodeBlock bbCodeVfcHH HiddenContent">
<div class="attribution type">Hidden Content:</div>
<blockquote>You must either reply or click 'Like' to see the hidden information contained here.</blockquote>
</div><br>
<br>
<b><span style="color: rgb(255, 0, 0)">Credits goes to <a href="https://sharemania.us/members/1219/" class="username" data-user="1219, @TrollHD">@TrollHD</a> !!!<br>
<br>
<img src="styles/default/xenforo/smilies/super_man-48.png" class="mceSmilie" alt=":super:" title="Super Man    :super:"><img src="styles/default/xenforo/smilies/super_man-48.png" class="mceSmilie" alt=":super:" title="Super Man    :super:"><img src="styles/default/xenforo/smilies/super_man-48.png" class="mceSmilie" alt=":super:" title="Super Man    :super:"></span></b>
<div class="messageTextEndMarker">&nbsp;</div>
</blockquote>
</article>]]></description>
                <author><![CDATA[Dream66]]></author>
                </item>

                
                <item>
                <title><![CDATA[【Requests】[REQ VID] - Beyond Belief: Fact or Fiction [all 5 Seasonss + Season 6 episode(s)]]]></title>
                <link><![CDATA[https://sharemania.us/threads/beyond-belief-fact-or-fiction-all-5-seasonss-season-6-episode-s.233839/]]></link>
                <description><![CDATA[<article>
<blockquote class="messageText SelectQuoteContainer ugc baseHtml">
Thanks in advance.<br>
Btw- Yes, there is new season 5 from 2021 + season 6 with premiere in 2023.
<div class="messageTextEndMarker">&nbsp;</div>
</blockquote>
</article>]]></description>
                <author><![CDATA[ilearnedfromthebest]]></author>
                </item>

                </channel></rss>